<svg>
    <clipPath clipPathUnits="objectBoundingBox">
        <path d="M0.478,0 C0.044,0,0.002,0.174,0.002,0.174 s-0.002,0.06,0.073,0.103 c0.006,0.016,-0.057,0.112,-0.057,0.112 s0.209,0.031,0.12,0.145 c-0.045,-0.054,-0.136,-0.07,-0.136,-0.07 s-0.065,0.459,0.498,0.537 c0.563,-0.085,0.498,-0.541,0.498,-0.541 c-0.055,0.004,-0.113,0.041,-0.134,0.08 c-0.101,-0.127,0.109,-0.145,0.109,-0.145 s-0.012,-0.069,-0.061,-0.121 c0.087,-0.027,0.087,-0.098,0.087,-0.098 S0.913,0,0.478,0 Z" />
    </clipPath>
</svg>